<svg xmlns="http://www.w3.org/2000/svg" viewBox="0 0 667.03 217.87"><defs><style>.cls-1{fill:#62518c}</style></defs><g id="Слой_2" data-name="Слой 2"><g id="Слой_1-2" data-name="Слой 1"><path class="cls-1" d="M47.44 32.21C19.24 41.36.69 62.26 5.65 79.12c0 .18.11.35.16.53l.27.76 1.24 3.73q.15.63.36 1.26c.16.5.35 1 .55 1.48 6.59 15.82 33.36 21.43 61 12.45s46-29.25 42-45.93l-.85-2.7-1.24-3.89-.35-1.12C103 29.09 75.67 23 47.44 32.21zm19.93 61.37C40.51 102.3 14.49 97.26 7 82.46 4.36 66.07 22.45 46.7 49.31 38s52.88-3.7 60.39 11.1c2.62 16.39-15.48 35.76-42.33 44.48z" transform="translate(-1.87)"/><path class="cls-1" d="M13.1 91.81C1.7 79.75 5.74 53.55 23 31.21S64.62-1.62 79.17 6.38C80 6.87 81 7.55 81 7.55l-3.08-2.38c-.33-.29-.66-.57-1-.84s-.85-.63-1.29-.91C61.26-5.94 36 4.51 18.21 27.5S-3.33 77.6 9.36 89.14l2.23 1.74 3.22 2.53.92.72m88.48-55.55c11.4 12.07 7.36 38.27-9.91 60.61S52.69 132 38.14 124c-.84-.49-1.87-1.17-1.87-1.17l3.12 2.38c.33.29.66.57 1 .84s.85.62 1.29.91c14.36 9.36 39.63-1.09 57.41-24.08S120.64 52.8 108 41.26l-2.23-1.74L102.5 37l-.92-.72" transform="translate(-1.87)"/><path class="cls-1" d="M72.59 15.8C84 13 98.78 24.56 106.57 43s-3 43-3 43q.43-.15.87-.33c.34-.15.68-.31 1-.48 10.78-5.62 13.11-24.86 5.09-43.84s-23.45-30.72-35-26.9l-1.85.77L71 16.3l-.77.32m-9.31 98.9c-9.85 6.43-27.62.33-41-14.52S2.2 67.85 9.61 58.7c.45-.52 1.05-1.16 1.05-1.16l-2.05 1.88c-.25.19-.48.39-.71.6s-.55.51-.8.78c-8.33 8.85-4.22 27.79 9.59 43.08s32.25 21.31 41.89 13.91l1.5-1.34 2.16-1.92.62-.56" transform="translate(-1.87)"/><path class="cls-1" d="M42.75 99.37a62.6 62.6 0 0 1-13.7-.84C17 96.38 8.68 90.61 5.57 82.28s-.61-18.15 7-27.67 19.3-17.43 33-22.57 27.85-6.8 39.74-4.67 20.37 7.93 23.49 16.25.61 18.16-7 27.68-19.31 17.42-33 22.56a85.94 85.94 0 0 1-26.05 5.51zM71.76 28a84.18 84.18 0 0 0-25.58 5.41c-13.5 5-25 12.9-32.42 22.11S4 74 6.94 81.77C13 98.05 40.55 102.86 68.28 92.48s45.32-32.06 39.23-48.34c-2.93-7.82-10.87-13.26-22.37-15.32A60.9 60.9 0 0 0 71.76 28z" transform="translate(-1.87)"/><path class="cls-1" transform="rotate(180 334.45 149.575)" d="M1.87 148.13H668.9v2.88H1.87z"/><path class="cls-1" transform="rotate(180 334.45 162.3)" d="M1.87 160.86H668.9v2.88H1.87z"/><path d="M15 191.45a10.8 10.8 0 0 1 2.75 1.55l-1.09 1.28a8.75 8.75 0 0 0-2.29-1.28 7.46 7.46 0 0 0-2.5-.38A6.85 6.85 0 0 0 6.48 195c-1.38 1.58-2.07 4-2.07 7.3a13.35 13.35 0 0 0 1 5.38A6.92 6.92 0 0 0 8 210.84a6.88 6.88 0 0 0 3.78 1 7.72 7.72 0 0 0 2.84-.46 10.49 10.49 0 0 0 2.38-1.32l1 1.25a9.22 9.22 0 0 1-6.33 2.27 9.19 9.19 0 0 1-4.88-1.31 8.9 8.9 0 0 1-3.35-3.86 14.22 14.22 0 0 1-1.21-6.16 13.78 13.78 0 0 1 1.26-6.16 8.84 8.84 0 0 1 8.24-5.09 9.63 9.63 0 0 1 3.27.45zm29 5.87a3.76 3.76 0 0 1 1.66 3.23q0 3-3.73 3.75a6.32 6.32 0 0 1 3.47 1.2 3.52 3.52 0 0 1 1.18 2.89 4.4 4.4 0 0 1-1.9 3.84 8.32 8.32 0 0 1-4.94 1.35 10.94 10.94 0 0 1-3.73-.58 10.49 10.49 0 0 1-2.94-1.6l1.1-1.15a9.41 9.41 0 0 0 2.48 1.31 9.1 9.1 0 0 0 3 .45 6.38 6.38 0 0 0 3.51-.86 3.1 3.1 0 0 0 1.32-2.79 2.55 2.55 0 0 0-1.37-2.43 8.36 8.36 0 0 0-3.9-.74h-2.06l.13-1.5H39a6.33 6.33 0 0 0 3.45-.8 2.58 2.58 0 0 0 1.23-2.3 2.47 2.47 0 0 0-1.08-2.16 5 5 0 0 0-2.89-.76 9.38 9.38 0 0 0-2.65.34 11 11 0 0 0-2.37 1.07l-1-1.15a11 11 0 0 1 2.84-1.34 11.28 11.28 0 0 1 3.31-.45 7 7 0 0 1 4.16 1.18zm21.56 14.08a2.19 2.19 0 0 0 1.14.87l-.44 1.31a3.58 3.58 0 0 1-1.9-.87 3.29 3.29 0 0 1-.87-2 6.22 6.22 0 0 1-5.58 2.82 5.75 5.75 0 0 1-4-1.36 4.7 4.7 0 0 1-1.49-3.63 4.63 4.63 0 0 1 2-4 9.22 9.22 0 0 1 5.45-1.41h3.42v-1.63a3.92 3.92 0 0 0-1-2.93 4.54 4.54 0 0 0-3.19-.91 15.37 15.37 0 0 0-4.85 1l-.52-1.41a16.18 16.18 0 0 1 5.65-1.12q5.85 0 5.85 5.31v8.06a3.7 3.7 0 0 0 .33 1.9zm-2.35-2.27v-4.61H60.1a7.34 7.34 0 0 0-4.17 1 3.39 3.39 0 0 0-1.44 3 3.48 3.48 0 0 0 1 2.66 3.9 3.9 0 0 0 2.77.92 5.47 5.47 0 0 0 4.95-2.97zm22.96-9.58a8.33 8.33 0 0 1 1.74 5.61q0 4.09-2 6.26a7 7 0 0 1-5.41 2.16 6.88 6.88 0 0 1-5.5-2.39c-1.36-1.58-2-4-2-7.15a27.69 27.69 0 0 1 .53-6 8 8 0 0 1 2-3.79 9.87 9.87 0 0 1 4.06-2.39c1.32-.45 2.38-.84 3.19-1.18a16.37 16.37 0 0 0 2.22-1.2l.89 1.38a24.7 24.7 0 0 1-5.51 2.4 9.88 9.88 0 0 0-2.84 1.41 5.44 5.44 0 0 0-1.67 2.33 14.13 14.13 0 0 0-.89 4.14 8 8 0 0 1 2.6-2.61 7 7 0 0 1 3.76-1 6 6 0 0 1 4.83 2.02zm-.38 5.74a7.51 7.51 0 0 0-1.21-4.7 4.2 4.2 0 0 0-3.51-1.54 6.27 6.27 0 0 0-3.51 1 7.38 7.38 0 0 0-2.48 2.95v1.64a9 9 0 0 0 1.39 5.5 4.78 4.78 0 0 0 4.09 1.86q5.23 0 5.23-6.71zm21.64-6.86a11.15 11.15 0 0 1 0 12.8 7.79 7.79 0 0 1-11.12 0 9.5 9.5 0 0 1-2-6.39 10.86 10.86 0 0 1 .93-4.64 6.88 6.88 0 0 1 2.63-3 7.58 7.58 0 0 1 4-1.05 7 7 0 0 1 5.56 2.28zm-9.6 1.1a8.5 8.5 0 0 0-1.44 5.34 8.58 8.58 0 0 0 1.42 5.32 4.82 4.82 0 0 0 4 1.82 4.91 4.91 0 0 0 4.06-1.82 10.65 10.65 0 0 0 0-10.68 5.42 5.42 0 0 0-8.09 0zm29.52-3.04l-.24 1.6h-6v15.14h-2v-15.14H113v-1.6zm16.65 1.94a11.15 11.15 0 0 1 0 12.8 7.78 7.78 0 0 1-11.11 0 9.45 9.45 0 0 1-2-6.39 10.86 10.86 0 0 1 .92-4.64 6.88 6.88 0 0 1 2.63-3 7.58 7.58 0 0 1 4-1.05 7 7 0 0 1 5.56 2.28zm-9.6 1.1a10.68 10.68 0 0 0 0 10.66 4.79 4.79 0 0 0 4 1.82 4.9 4.9 0 0 0 4.05-1.82 10.65 10.65 0 0 0 0-10.68 5.42 5.42 0 0 0-8.09 0zm32.43 13.7h-2v-10.37c0-1.35.07-2.75.2-4.23l-8.93 14.6h-2.32v-16.74h2v9.82c0 1.09-.07 2.66-.2 4.71l8.89-14.53h2.33zm-9.53-21.7a3.16 3.16 0 0 1-1.45-2.18l1.36-.25c.44 1.15 1.46 1.73 3.08 1.73s2.68-.58 3.12-1.73l1.36.25a3.15 3.15 0 0 1-1.47 2.18 5.42 5.42 0 0 1-3 .8 5.36 5.36 0 0 1-3-.8zm42.01 6.9a11.15 11.15 0 0 1 0 12.8 7.79 7.79 0 0 1-11.12 0 9.5 9.5 0 0 1-2-6.39 10.86 10.86 0 0 1 .93-4.64 6.88 6.88 0 0 1 2.63-3 7.58 7.58 0 0 1 4-1.05 7 7 0 0 1 5.56 2.28zm-9.6 1.1a8.5 8.5 0 0 0-1.44 5.34 8.58 8.58 0 0 0 1.42 5.32 4.82 4.82 0 0 0 4 1.82 4.91 4.91 0 0 0 4.06-1.82 10.65 10.65 0 0 0 0-10.68 5.42 5.42 0 0 0-8.09 0zm44.4 3.66a5 5 0 0 1 1.51 4 5.13 5.13 0 0 1-2.23 4.57 10.87 10.87 0 0 1-6.19 1.51h-6.4v-21.96h5.2a12 12 0 0 1 6.28 1.37 5 5 0 0 1 1 7.36 5.36 5.36 0 0 1-3.13 1.57 6.83 6.83 0 0 1 3.96 1.58zm-11.25-10.28v8h4.72a5.47 5.47 0 0 0 3.52-1.07 3.6 3.6 0 0 0 1.34-3 3.31 3.31 0 0 0-1.56-3.08 9.33 9.33 0 0 0-4.64-.92zm10.64 14.24a4.08 4.08 0 0 0-1.56-3.52 6.75 6.75 0 0 0-4.12-1.16h-5v9.16h4.34c4.24 0 6.34-1.5 6.34-4.48zm21.05 4.25a2.18 2.18 0 0 0 1.15.87l-.45 1.31a3.62 3.62 0 0 1-1.9-.87 3.35 3.35 0 0 1-.87-2 6.22 6.22 0 0 1-5.58 2.82 5.75 5.75 0 0 1-4.05-1.36 4.7 4.7 0 0 1-1.49-3.63 4.63 4.63 0 0 1 2-4 9.23 9.23 0 0 1 5.46-1.41h3.42v-1.63a3.88 3.88 0 0 0-1-2.93 4.53 4.53 0 0 0-3.18-.91 15.37 15.37 0 0 0-4.86 1l-.51-1.41a16.09 16.09 0 0 1 5.64-1.12q5.85 0 5.85 5.31v8.06a3.7 3.7 0 0 0 .37 1.9zm-2.34-2.27v-4.61h-3.12a7.34 7.34 0 0 0-4.17 1 3.39 3.39 0 0 0-1.44 3 3.45 3.45 0 0 0 1 2.66 3.88 3.88 0 0 0 2.77.92 5.49 5.49 0 0 0 4.96-2.97zm31.16-12.64v16.74h-20v-16.74h1.95v15.17h7.08v-15.17h1.92v15.17h7.08v-15.17zm21.86 9.09h-11.94a7.49 7.49 0 0 0 1.66 4.85 5.12 5.12 0 0 0 3.91 1.58 7 7 0 0 0 2.48-.4 11.65 11.65 0 0 0 2.35-1.26l.92 1.18a10.31 10.31 0 0 1-2.74 1.54 9 9 0 0 1-3.11.51 7.07 7.07 0 0 1-5.57-2.27 9.16 9.16 0 0 1-2-6.31 11.55 11.55 0 0 1 .87-4.65 7 7 0 0 1 2.5-3.11 6.59 6.59 0 0 1 3.78-1.1 6.35 6.35 0 0 1 5.2 2.16 9.1 9.1 0 0 1 1.78 5.93c-.02.47-.05.92-.09 1.35zm-1.88-1.92a6.94 6.94 0 0 0-1.25-4.4 4.44 4.44 0 0 0-3.71-1.59 4.53 4.53 0 0 0-3.6 1.6 7.9 7.9 0 0 0-1.5 4.87h10.06zm26.16 9.57h-1.95l-.92-9.76c-.14-1.58-.23-3.28-.27-5.09l-5 12.77h-1.88l-4.86-12.77c0 1.81-.12 3.51-.24 5.09l-.85 9.76h-1.92l1.58-16.74h2.53l4.72 12.77 4.89-12.77h2.57zm30.24 0v-15.17H351v15.17h-2v-16.74h12.76v16.74zm24.25 0h-2v-10.37c0-1.35.07-2.75.21-4.23l-8.93 14.6H371v-16.74h2v9.82q0 1.63-.21 4.71l8.89-14.53H384zm20.19-16.74l-.24 1.6H398v15.14h-2v-15.14h-6.16v-1.6zm16.67 1.94a9.33 9.33 0 0 1 2 6.38 9.47 9.47 0 0 1-2 6.42 7.79 7.79 0 0 1-11.12 0 9.5 9.5 0 0 1-2-6.39 11 11 0 0 1 .92-4.64 7 7 0 0 1 2.64-3 7.54 7.54 0 0 1 4-1.05 7 7 0 0 1 5.56 2.28zm-9.59 1.1a10.65 10.65 0 0 0 0 10.66 4.82 4.82 0 0 0 4 1.82 4.9 4.9 0 0 0 4.05-1.82 10.62 10.62 0 0 0 0-10.68 5.42 5.42 0 0 0-8.09 0zm35.98 13.7h-1.95l-.92-9.76c-.14-1.58-.23-3.28-.27-5.09l-5 12.77h-1.88l-4.86-12.77c0 1.81-.12 3.51-.24 5.09l-.85 9.76h-1.92l1.58-16.74h2.53l4.72 12.77 4.89-12.77h2.57zm20.49-1.57h2.36v6.21h-1.57l-.41-4.64h-12.93v-16.74h2v15.17h8.59v-15.17h2zm21.52-6.08h-11.94a7.54 7.54 0 0 0 1.66 4.85 5.14 5.14 0 0 0 3.92 1.57 7.05 7.05 0 0 0 2.48-.4 11.34 11.34 0 0 0 2.34-1.26l.92 1.18a10.42 10.42 0 0 1-2.73 1.54 9.12 9.12 0 0 1-3.12.51 7.07 7.07 0 0 1-5.57-2.27 9.16 9.16 0 0 1-2-6.31 11.55 11.55 0 0 1 .87-4.65 7.07 7.07 0 0 1 2.5-3.11 6.59 6.59 0 0 1 3.78-1.1 6.35 6.35 0 0 1 5.2 2.16 9 9 0 0 1 1.78 5.93 11.72 11.72 0 0 1-.09 1.36zm-1.88-1.92a6.94 6.94 0 0 0-1.25-4.4 4.43 4.43 0 0 0-3.71-1.59 4.51 4.51 0 0 0-3.59 1.6 7.83 7.83 0 0 0-1.51 4.87h10.06z" transform="translate(-1.87)" fill="#8c76ad" id="С_заботой_о_Вашем_питомце" data-name="С заботой о Вашем питомце"/><path class="cls-1" d="M226.19 28.38L204.08 63.8l24 39.93h-7.59l-22-37h-11.9v37H180V28.38h6.6v32.89h12l20.68-32.89zm51.31 24.48q6.44 7.86 6.44 21.94t-6.55 22.06q-6.54 8.08-17.87 8.08t-17.88-8q-6.44-8-6.43-22a39.72 39.72 0 0 1 3-15.95 23.25 23.25 0 0 1 8.47-10.45 23 23 0 0 1 13-3.63q11.4.09 17.82 7.95zm-30.85 3.79Q242 62.92 242 75t4.56 18.26q4.57 6.27 12.93 6.27t13-6.27q4.68-6.27 4.68-18.48 0-12-4.57-18.2t-13-6.22q-8.32.02-12.95 6.29zM335.2 46.2l-.77 5.5h-19.14v52h-6.38v-52h-19.8v-5.5zm84.8 57.53h-6.27V68.09q0-6.93.66-14.52l-28.71 50.16h-7.48V46.2h6.38V80q0 5.61-.66 16.17l28.6-49.94H420zm103.3-75.35v75.35h-6.6V34.1h-35.53v69.63h-6.6V28.38zm64.46 49.06h-38.39q.54 11.22 5.33 16.67a16 16 0 0 0 12.6 5.44 21.44 21.44 0 0 0 8-1.37 35.34 35.34 0 0 0 7.54-4.35l3 4.07a32.55 32.55 0 0 1-8.8 5.28 27.22 27.22 0 0 1-10 1.76q-11.44 0-17.93-7.81t-6.49-21.67a42.14 42.14 0 0 1 2.8-16 24 24 0 0 1 8-10.67A20.15 20.15 0 0 1 565.54 45q11 0 16.72 7.43T588 72.82c0 1.62-.1 3.18-.24 4.62zm-6-6.6q0-9.68-4-15.12t-11.93-5.45a14.09 14.09 0 0 0-11.55 5.5q-4.41 5.5-4.84 16.72h32.34zm-23.21-47.46a4.27 4.27 0 0 1 1.27 3.13 4.08 4.08 0 0 1-1.27 3.08 4.67 4.67 0 0 1-6.27 0 4.07 4.07 0 0 1-1.28-3.08 4.43 4.43 0 0 1 7.53-3.13zm20.79 0a4.27 4.27 0 0 1 1.27 3.13 4.08 4.08 0 0 1-1.27 3.08 4.67 4.67 0 0 1-6.27 0 4.07 4.07 0 0 1-1.26-3.08 4.43 4.43 0 0 1 7.53-3.13zm55.28 22.99a24.38 24.38 0 0 1 7.48 4.45L638.91 55a20.77 20.77 0 0 0-5.91-3.41 20.13 20.13 0 0 0-6.87-1.1 15.49 15.49 0 0 0-13 6.33q-4.84 6.33-4.84 18.42t4.78 18a15.6 15.6 0 0 0 12.93 6 19.19 19.19 0 0 0 7-1.21 25.75 25.75 0 0 0 6.33-3.63l3.08 4.29a24.79 24.79 0 0 1-16.5 6.16 23.29 23.29 0 0 1-12.87-3.52 22.94 22.94 0 0 1-8.53-10.17 38.17 38.17 0 0 1-3-15.9 39.38 39.38 0 0 1 3-16 24.35 24.35 0 0 1 8.53-10.62A22.15 22.15 0 0 1 625.82 45a26 26 0 0 1 8.8 1.37z" transform="translate(-1.87)"/></g></g></svg>